HIERARCHY
ROOT simHips
{
  OFFSET -190.129 99.8904 31.6836
  CHANNELS 6 Xposition Yposition Zposition Zrotation Xrotation Yrotation
  JOINT simSpine
  {
    OFFSET -0.000355721 21.3001 -0.016921
    CHANNELS 3 Zrotation Xrotation Yrotation
    JOINT simLeftArm
    {
      OFFSET 13.5181 21.3012 0
      CHANNELS 3 Zrotation Xrotation Yrotation
      JOINT simLeftForeArm
      {
        OFFSET 24.5783 0 0
        CHANNELS 3 Zrotation Xrotation Yrotation
        JOINT simLeftHand
        {
          OFFSET 24.5783 0 0
          CHANNELS 3 Zrotation Xrotation Yrotation
          End Site
          {
            OFFSET 7.32568 1.52588e-05 0.0169305
          }
        }
      }
    }
    JOINT simHead
    {
      OFFSET 0 27.4458 -0.00489235
      CHANNELS 3 Zrotation Xrotation Yrotation
      End Site
      {
        OFFSET 0 0 0
      }
    }
    JOINT simRightArm
    {
      OFFSET -13.5174 21.3012 0
      CHANNELS 3 Zrotation Xrotation Yrotation
      JOINT simRightForeArm
      {
        OFFSET -24.5783 0 0
        CHANNELS 3 Zrotation Xrotation Yrotation
        JOINT simRightHand
        {
          OFFSET -24.5783 0 0
          CHANNELS 3 Zrotation Xrotation Yrotation
          End Site
          {
            OFFSET -7.32568 1.52588e-05 0.0169305
          }
        }
      }
    }
  }
  JOINT simRightUpLeg
  {
    OFFSET -8.44614 -9.41038 0.835684
    CHANNELS 3 Zrotation Xrotation Yrotation
    JOINT simRightLeg
    {
      OFFSET 0 -40.9639 0
      CHANNELS 3 Zrotation Xrotation Yrotation
      JOINT simRightFoot
      {
        OFFSET 0 -40.9639 0
        CHANNELS 3 Zrotation Xrotation Yrotation
        End Site
        {
          OFFSET 0.50614 -9.67405 14.6709
        }
      }
    }
  }
  JOINT simLeftUpLeg
  {
    OFFSET 8.44614 -9.41038 0.835684
    CHANNELS 3 Zrotation Xrotation Yrotation
    JOINT simLeftLeg
    {
      OFFSET 0 -40.9639 0
      CHANNELS 3 Zrotation Xrotation Yrotation
      JOINT simLeftFoot
      {
        OFFSET 0 -40.9639 0
        CHANNELS 3 Zrotation Xrotation Yrotation
        End Site
        {
          OFFSET -0.50614 -9.67405 14.6709
        }
      }
    }
  }
}
MOTION
Frames:	14
Frame Time:	0.0333333
-72.2518 86.7686 -43.6113 0.272745 0.809868 68.1928 -18.5407 25.4659 38.6706 -62.1902 26.6899 26.822 28.0651 -9.57827 -37.6823 15.9604 -18.596 16.9473 -2.94953 -21.9029 -55.7102 7.42077 0.218878 46.8194 -30.932 -24.7278 54.8665 -2.46593 -19.3514 2.52143 -33.3649 -8.12336 5.87955 51.1064 58.0205 -28.1624 8.20264 -13.6288 -7.35714 31.5967 -33.4079 -0.209375 -24.2829 35.17 7.37818 -10.4919 -5.16452 -2.22318 
-72.858 87.7898 -44.1786 -1.22596 0.972275 61.9529 -17.0701 27.1006 33.1563 -50.9802 34.6256 8.08033 27.2678 -8.98827 -36.5303 18.5014 -18.6553 17.2865 -1.27589 -28.1634 -50.0734 -1.16797 -21.6504 43.4346 -24.2048 -14.5084 39.4838 -12.0047 -30.1307 -1.37965 -35.1365 -21.1973 -1.70814 51.9285 58.3284 -28.8595 2.22306 -16.834 -5.7763 34.3238 -29.6426 6.11899 -21.7683 32.3191 6.00556 -11.2245 -3.76622 -1.8167 
-72.9001 88.5692 -44.2874 -1.57522 1.54187 59.8306 -13.4615 29.2288 25.7796 -31.7576 28.6733 -19.9767 28.2461 -9.71414 -37.9424 21.1164 -17.5613 15.213 -1.52901 -29.239 -43.1129 -12.5821 -28.6487 32.0359 -18.7627 -9.09258 29.4946 -15.1724 -27.628 -1.32958 -37.0045 -30.0073 -9.28816 46.1122 55.9099 -24.1289 3.70642 -13.3958 -2.73355 33.9533 -27.3355 8.60593 -19.6931 29.7825 4.95048 -11.648 -2.53837 -2.14708 
-72.0646 89.3085 -43.6536 -1.38477 2.34483 61.1132 -8.06496 29.8864 15.9417 -21.9833 8.86844 -45.9862 28.8128 -10.1501 -38.7647 22.6237 -13.373 11.8703 -1.9782 -25.8433 -33.8864 -13.6309 -20.6572 15.9094 -20.0051 -10.1775 31.6719 -15.0826 -25.2314 3.51287 -38.795 -34.8133 -14.4269 37.3743 51.0454 -17.2252 2.96524 -10.3998 -2.45441 31.8167 -25.779 9.07032 -17.2646 26.9157 3.79867 -13.918 -0.913885 -4.05517 
-70.4115 90.2403 -42.375 -0.866442 3.10872 63.033 -1.99475 28.8985 2.24299 -26.6538 -4.82676 -64.51 32.6291 -13.4352 -44.4602 25.0203 -9.26831 12.7191 -1.56207 -19.8779 -21.1981 -3.30861 -9.42391 4.08502 -22.2377 -12.3415 35.7257 -16.2979 -21.6318 0.645387 -40.0562 -36.7703 -16.6071 28.1528 43.6493 -10.5678 3.83812 -6.70423 -0.965424 29.1283 -22.7469 10.3266 -13.1146 23.3029 2.10545 -20.2617 0.131877 -7.97707 
-67.2001 91.3801 -40.0455 -0.530718 6.0773 61.2879 2.15044 24.3979 -8.93556 -21.8481 -6.76251 -68.9447 38.6829 -20.1233 -54.2539 23.6758 1.87171 8.62348 -4.37763 -16.8712 -9.40667 13.7701 -0.212807 -11.3355 -25.813 -16.4965 42.7293 -17.3259 -20.7775 -2.89435 -41.5628 -38.7363 -17.5865 19.3087 33.5206 -5.29396 8.35636 1.40491 1.79474 25.117 -16.5467 13.9197 -7.641 17.9601 0.342972 -29.8899 0.265533 -14.806 
-62.4633 92.205 -36.2571 3.53778 9.77708 54.7099 4.02843 18.4715 -15.1256 -14.5882 4.6583 -57.8604 42.6802 -25.9359 -61.6501 23.8785 6.27734 4.74754 -13.072 -10.6513 3.30692 30.893 -0.216449 -30.0324 -29.3329 -21.7485 50.6526 -16.7368 -18.9014 -4.28139 -43.3736 -39.2194 -21.0619 15.1753 27.5888 -3.35704 11.1109 7.09618 3.53533 20.3663 -5.66314 -0.795488 -7.53462 15.493 0.440245 -22.1521 -0.178132 -25.2163 
-57.9058 91.8785 -30.8296 11.5596 10.2074 44.9263 3.41355 14.0236 -19.5853 -21.5887 24.8245 -40.8051 41.453 -23.9972 -59.2613 24.3059 12.1164 3.25953 -19.2186 -1.8326 16.5707 43.864 -5.38636 -45.318 -32.1305 -27.3392 58.4593 -16.391 -17.475 -4.04128 -42.6526 -37.5688 -23.6905 16.9424 30.2045 -4.11467 10.5014 6.36506 0.31523 18.5787 6.56414 -7.15061 -14.5938 24.0278 2.71388 -18.5068 2.37733 -15.3661 
-55.2436 90.0812 -25.1612 21.6808 6.64664 32.4937 -1.9872 14.4644 -23.1948 -41.2405 28.9335 -17.131 35.1739 -15.9968 -48.435 20.5031 15.3323 4.61943 -17.7951 3.77976 27.5074 57.2298 -8.18588 -49.0569 -33.754 -31.7977 64.4819 -15.6587 -14.2294 -0.0978169 -37.4633 -35.2579 -16.3267 19.5225 33.7933 -5.46503 -11.1936 10.4509 5.63035 19.2529 16.1341 -11.2026 -34.4746 44.4914 14.1862 -12.6456 0.519059 -9.51294 
-54.2047 87.8623 -21.5898 28.386 0.646092 19.2016 -7.65612 19.2851 -21.5775 -56.7217 18.1511 0.819006 27.1968 -8.93756 -36.4294 28.8234 3.16 10.4341 -11.9146 3.86897 30.2818 72.3659 -2.2801 -38.7935 -34.3908 -34.1119 67.5987 -14.4968 -11.6952 4.39425 -34.265 -40.4003 -0.562566 29.4293 44.8639 -11.4604 -11.8485 3.69953 3.782 22.8134 19.3896 -15.0638 -77.0021 59.6891 48.8826 -9.58787 6.22314 -1.07706 
-54.7286 86.7305 -20.1259 28.7035 -4.99159 10.8991 -7.21897 25.3418 -18.1685 -63.5462 10.2481 6.83546 17.26 -3.38946 -22.6829 29.9368 -6.2059 17.4808 -10.8489 3.55658 29.1316 80.0877 13.648 -18.3777 -34.3272 -33.8557 67.2527 -14.147 -8.3707 7.41246 -25.654 -40.2713 8.89954 32.2355 47.2909 -13.4266 -14.7084 0.981651 4.9283 29.4715 10.3062 -26.6902 -118.77 57.1125 85.4338 -7.07558 24.7447 -0.972003 
-55.926 86.3242 -20.1132 30.0364 -7.53803 3.57963 -9.10371 29.8493 -8.39874 -68.1085 11.8372 10.1023 10.8014 -1.28012 -14.0999 21.5964 -15.5863 19.3552 -16.6316 4.08467 27.6322 67.4949 30.23 7.03578 -34.4818 -34.4921 68.1123 -15.0983 -7.26762 9.49515 -23.0761 -40.8323 11.2162 32.3841 47.4159 -13.5232 -15.414 -0.429045 8.3261 31.4263 -4.38059 -34.7201 -117.94 57.2978 84.8787 -7.88071 25.6504 -5.34118 
-56.682 86.8893 -21.2861 32.6167 -10.9071 -6.39567 -15.6963 36.3144 8.69764 -72.4944 13.1961 12.8773 11.7653 -1.52795 -15.37 26.5442 -15.6802 20.4916 -24.7791 5.33897 25.9247 37.1233 26.687 35.2843 -34.9442 -36.7812 71.2241 -15.7486 -6.15883 13.1691 -22.2329 -41.4312 12.6551 30.4897 45.8203 -12.1632 -13.9405 -0.037778 12.3137 33.7796 -8.5432 -27.4375 -62.3996 57.1441 37.1609 -8.37393 24.4133 -0.127091 
-56.6632 87.3937 -22.2292 34.7405 -10.1502 -13.8631 -19.9176 36.8737 19.1625 -74.9175 11.2864 17.7013 13.8852 -2.15423 -18.1755 27.5308 -15.5104 17.2614 -35.0183 12.5485 26.7182 16.1091 4.39012 51.6227 -34.8422 -36.1933 70.4228 -19.9708 -7.66013 12.6596 -23.641 -45.2013 9.83772 28.3895 43.9077 -10.7142 -13.9359 -0.135343 10.5207 33.664 -4.92486 -7.59877 -10.3842 22.3746 1.88026 -10.7831 27.513 0.491816 
